<mxfile host="app.diagrams.net" agent="Mozilla/5.0 (Macintosh; Intel Mac OS X 10_15_7) AppleWebKit/537.36 (KHTML, like Gecko) Chrome/131.0.0.0 Safari/537.36" version="26.0.5">
  <diagram name="Page-1" id="1c5j7TkLf0kEHYQvg_LL">
    <mxGraphModel dx="3392" dy="1468" grid="1" gridSize="10" guides="1" tooltips="1" connect="1" arrows="1" fold="1" page="1" pageScale="1" pageWidth="827" pageHeight="1169" math="0" shadow="0">
      <root>
        <mxCell id="0" />
        <mxCell id="1" parent="0" />
        <mxCell id="c5Mr7ToMObOQHb0oXVFw-2" value="fund （资金账户）" style="shape=table;startSize=30;container=1;collapsible=0;childLayout=tableLayout;fixedRows=1;rowLines=0;fontStyle=0;strokeColor=default;fontSize=16;" vertex="1" parent="1">
          <mxGeometry x="60" y="760" width="270.0000000000002" height="210" as="geometry" />
        </mxCell>
        <mxCell id="c5Mr7ToMObOQHb0oXVFw-3" value="" style="shape=tableRow;horizontal=0;startSize=0;swimlaneHead=0;swimlaneBody=0;top=0;left=0;bottom=0;right=0;collapsible=0;dropTarget=0;fillColor=none;points=[[0,0.5],[1,0.5]];portConstraint=eastwest;strokeColor=inherit;fontSize=16;" vertex="1" parent="c5Mr7ToMObOQHb0oXVFw-2">
          <mxGeometry y="30" width="270.0000000000002" height="30" as="geometry" />
        </mxCell>
        <mxCell id="c5Mr7ToMObOQHb0oXVFw-4" value="1" style="shape=partialRectangle;html=1;whiteSpace=wrap;connectable=0;fillColor=none;top=0;left=0;bottom=0;right=0;overflow=hidden;pointerEvents=1;strokeColor=inherit;fontSize=16;" vertex="1" parent="c5Mr7ToMObOQHb0oXVFw-3">
          <mxGeometry width="40" height="30" as="geometry">
            <mxRectangle width="40" height="30" as="alternateBounds" />
          </mxGeometry>
        </mxCell>
        <mxCell id="c5Mr7ToMObOQHb0oXVFw-5" value="userId (归属拥有者)" style="shape=partialRectangle;html=1;whiteSpace=wrap;connectable=0;fillColor=none;top=0;left=0;bottom=0;right=0;align=left;spacingLeft=6;overflow=hidden;strokeColor=inherit;fontSize=16;" vertex="1" parent="c5Mr7ToMObOQHb0oXVFw-3">
          <mxGeometry x="40" width="230" height="30" as="geometry">
            <mxRectangle width="230" height="30" as="alternateBounds" />
          </mxGeometry>
        </mxCell>
        <mxCell id="c5Mr7ToMObOQHb0oXVFw-6" value="" style="shape=tableRow;horizontal=0;startSize=0;swimlaneHead=0;swimlaneBody=0;top=0;left=0;bottom=0;right=0;collapsible=0;dropTarget=0;fillColor=none;points=[[0,0.5],[1,0.5]];portConstraint=eastwest;strokeColor=inherit;fontSize=16;" vertex="1" parent="c5Mr7ToMObOQHb0oXVFw-2">
          <mxGeometry y="60" width="270.0000000000002" height="30" as="geometry" />
        </mxCell>
        <mxCell id="c5Mr7ToMObOQHb0oXVFw-7" value="2" style="shape=partialRectangle;html=1;whiteSpace=wrap;connectable=0;fillColor=none;top=0;left=0;bottom=0;right=0;overflow=hidden;strokeColor=inherit;fontSize=16;" vertex="1" parent="c5Mr7ToMObOQHb0oXVFw-6">
          <mxGeometry width="40" height="30" as="geometry">
            <mxRectangle width="40" height="30" as="alternateBounds" />
          </mxGeometry>
        </mxCell>
        <mxCell id="c5Mr7ToMObOQHb0oXVFw-8" value="status(0 封禁 1 正常)" style="shape=partialRectangle;html=1;whiteSpace=wrap;connectable=0;fillColor=none;top=0;left=0;bottom=0;right=0;align=left;spacingLeft=6;overflow=hidden;strokeColor=inherit;fontSize=16;" vertex="1" parent="c5Mr7ToMObOQHb0oXVFw-6">
          <mxGeometry x="40" width="230" height="30" as="geometry">
            <mxRectangle width="230" height="30" as="alternateBounds" />
          </mxGeometry>
        </mxCell>
        <mxCell id="c5Mr7ToMObOQHb0oXVFw-9" value="" style="shape=tableRow;horizontal=0;startSize=0;swimlaneHead=0;swimlaneBody=0;top=0;left=0;bottom=0;right=0;collapsible=0;dropTarget=0;fillColor=none;points=[[0,0.5],[1,0.5]];portConstraint=eastwest;strokeColor=inherit;fontSize=16;" vertex="1" parent="c5Mr7ToMObOQHb0oXVFw-2">
          <mxGeometry y="90" width="270.0000000000002" height="30" as="geometry" />
        </mxCell>
        <mxCell id="c5Mr7ToMObOQHb0oXVFw-10" value="3" style="shape=partialRectangle;html=1;whiteSpace=wrap;connectable=0;fillColor=none;top=0;left=0;bottom=0;right=0;overflow=hidden;strokeColor=inherit;fontSize=16;" vertex="1" parent="c5Mr7ToMObOQHb0oXVFw-9">
          <mxGeometry width="40" height="30" as="geometry">
            <mxRectangle width="40" height="30" as="alternateBounds" />
          </mxGeometry>
        </mxCell>
        <mxCell id="c5Mr7ToMObOQHb0oXVFw-11" value="balance （余额）" style="shape=partialRectangle;html=1;whiteSpace=wrap;connectable=0;fillColor=none;top=0;left=0;bottom=0;right=0;align=left;spacingLeft=6;overflow=hidden;strokeColor=inherit;fontSize=16;" vertex="1" parent="c5Mr7ToMObOQHb0oXVFw-9">
          <mxGeometry x="40" width="230" height="30" as="geometry">
            <mxRectangle width="230" height="30" as="alternateBounds" />
          </mxGeometry>
        </mxCell>
        <mxCell id="c5Mr7ToMObOQHb0oXVFw-12" style="shape=tableRow;horizontal=0;startSize=0;swimlaneHead=0;swimlaneBody=0;top=0;left=0;bottom=0;right=0;collapsible=0;dropTarget=0;fillColor=none;points=[[0,0.5],[1,0.5]];portConstraint=eastwest;strokeColor=inherit;fontSize=16;" vertex="1" parent="c5Mr7ToMObOQHb0oXVFw-2">
          <mxGeometry y="120" width="270.0000000000002" height="30" as="geometry" />
        </mxCell>
        <mxCell id="c5Mr7ToMObOQHb0oXVFw-13" value="4" style="shape=partialRectangle;html=1;whiteSpace=wrap;connectable=0;fillColor=none;top=0;left=0;bottom=0;right=0;overflow=hidden;strokeColor=inherit;fontSize=16;" vertex="1" parent="c5Mr7ToMObOQHb0oXVFw-12">
          <mxGeometry width="40" height="30" as="geometry">
            <mxRectangle width="40" height="30" as="alternateBounds" />
          </mxGeometry>
        </mxCell>
        <mxCell id="c5Mr7ToMObOQHb0oXVFw-14" value="frozen_amount （冻结额度）" style="shape=partialRectangle;html=1;whiteSpace=wrap;connectable=0;fillColor=none;top=0;left=0;bottom=0;right=0;align=left;spacingLeft=6;overflow=hidden;strokeColor=inherit;fontSize=16;" vertex="1" parent="c5Mr7ToMObOQHb0oXVFw-12">
          <mxGeometry x="40" width="230" height="30" as="geometry">
            <mxRectangle width="230" height="30" as="alternateBounds" />
          </mxGeometry>
        </mxCell>
        <mxCell id="c5Mr7ToMObOQHb0oXVFw-15" style="shape=tableRow;horizontal=0;startSize=0;swimlaneHead=0;swimlaneBody=0;top=0;left=0;bottom=0;right=0;collapsible=0;dropTarget=0;fillColor=none;points=[[0,0.5],[1,0.5]];portConstraint=eastwest;strokeColor=inherit;fontSize=16;" vertex="1" parent="c5Mr7ToMObOQHb0oXVFw-2">
          <mxGeometry y="150" width="270.0000000000002" height="30" as="geometry" />
        </mxCell>
        <mxCell id="c5Mr7ToMObOQHb0oXVFw-16" value="5" style="shape=partialRectangle;html=1;whiteSpace=wrap;connectable=0;fillColor=none;top=0;left=0;bottom=0;right=0;overflow=hidden;strokeColor=inherit;fontSize=16;" vertex="1" parent="c5Mr7ToMObOQHb0oXVFw-15">
          <mxGeometry width="40" height="30" as="geometry">
            <mxRectangle width="40" height="30" as="alternateBounds" />
          </mxGeometry>
        </mxCell>
        <mxCell id="c5Mr7ToMObOQHb0oXVFw-17" value="fund_no (资金账号)" style="shape=partialRectangle;html=1;whiteSpace=wrap;connectable=0;fillColor=none;top=0;left=0;bottom=0;right=0;align=left;spacingLeft=6;overflow=hidden;strokeColor=inherit;fontSize=16;" vertex="1" parent="c5Mr7ToMObOQHb0oXVFw-15">
          <mxGeometry x="40" width="230" height="30" as="geometry">
            <mxRectangle width="230" height="30" as="alternateBounds" />
          </mxGeometry>
        </mxCell>
        <mxCell id="c5Mr7ToMObOQHb0oXVFw-78" style="shape=tableRow;horizontal=0;startSize=0;swimlaneHead=0;swimlaneBody=0;top=0;left=0;bottom=0;right=0;collapsible=0;dropTarget=0;fillColor=none;points=[[0,0.5],[1,0.5]];portConstraint=eastwest;strokeColor=inherit;fontSize=16;" vertex="1" parent="c5Mr7ToMObOQHb0oXVFw-2">
          <mxGeometry y="180" width="270.0000000000002" height="30" as="geometry" />
        </mxCell>
        <mxCell id="c5Mr7ToMObOQHb0oXVFw-79" value="6" style="shape=partialRectangle;html=1;whiteSpace=wrap;connectable=0;fillColor=none;top=0;left=0;bottom=0;right=0;overflow=hidden;strokeColor=inherit;fontSize=16;" vertex="1" parent="c5Mr7ToMObOQHb0oXVFw-78">
          <mxGeometry width="40" height="30" as="geometry">
            <mxRectangle width="40" height="30" as="alternateBounds" />
          </mxGeometry>
        </mxCell>
        <mxCell id="c5Mr7ToMObOQHb0oXVFw-80" value="platform_account (平台账号)" style="shape=partialRectangle;html=1;whiteSpace=wrap;connectable=0;fillColor=none;top=0;left=0;bottom=0;right=0;align=left;spacingLeft=6;overflow=hidden;strokeColor=inherit;fontSize=16;" vertex="1" parent="c5Mr7ToMObOQHb0oXVFw-78">
          <mxGeometry x="40" width="230" height="30" as="geometry">
            <mxRectangle width="230" height="30" as="alternateBounds" />
          </mxGeometry>
        </mxCell>
        <mxCell id="c5Mr7ToMObOQHb0oXVFw-18" value="fund_trans (资金流水)" style="shape=table;startSize=30;container=1;collapsible=0;childLayout=tableLayout;fixedRows=1;rowLines=0;fontStyle=0;strokeColor=default;fontSize=16;" vertex="1" parent="1">
          <mxGeometry x="580" y="750" width="310.00000000000045" height="150" as="geometry" />
        </mxCell>
        <mxCell id="c5Mr7ToMObOQHb0oXVFw-19" value="" style="shape=tableRow;horizontal=0;startSize=0;swimlaneHead=0;swimlaneBody=0;top=0;left=0;bottom=0;right=0;collapsible=0;dropTarget=0;fillColor=none;points=[[0,0.5],[1,0.5]];portConstraint=eastwest;strokeColor=inherit;fontSize=16;" vertex="1" parent="c5Mr7ToMObOQHb0oXVFw-18">
          <mxGeometry y="30" width="310.00000000000045" height="30" as="geometry" />
        </mxCell>
        <mxCell id="c5Mr7ToMObOQHb0oXVFw-20" value="1" style="shape=partialRectangle;html=1;whiteSpace=wrap;connectable=0;fillColor=none;top=0;left=0;bottom=0;right=0;overflow=hidden;pointerEvents=1;strokeColor=inherit;fontSize=16;" vertex="1" parent="c5Mr7ToMObOQHb0oXVFw-19">
          <mxGeometry width="40" height="30" as="geometry">
            <mxRectangle width="40" height="30" as="alternateBounds" />
          </mxGeometry>
        </mxCell>
        <mxCell id="c5Mr7ToMObOQHb0oXVFw-21" value="fund_no （资金账号）" style="shape=partialRectangle;html=1;whiteSpace=wrap;connectable=0;fillColor=none;top=0;left=0;bottom=0;right=0;align=left;spacingLeft=6;overflow=hidden;strokeColor=inherit;fontSize=16;" vertex="1" parent="c5Mr7ToMObOQHb0oXVFw-19">
          <mxGeometry x="40" width="270" height="30" as="geometry">
            <mxRectangle width="270" height="30" as="alternateBounds" />
          </mxGeometry>
        </mxCell>
        <mxCell id="c5Mr7ToMObOQHb0oXVFw-22" value="" style="shape=tableRow;horizontal=0;startSize=0;swimlaneHead=0;swimlaneBody=0;top=0;left=0;bottom=0;right=0;collapsible=0;dropTarget=0;fillColor=none;points=[[0,0.5],[1,0.5]];portConstraint=eastwest;strokeColor=inherit;fontSize=16;" vertex="1" parent="c5Mr7ToMObOQHb0oXVFw-18">
          <mxGeometry y="60" width="310.00000000000045" height="30" as="geometry" />
        </mxCell>
        <mxCell id="c5Mr7ToMObOQHb0oXVFw-23" value="2" style="shape=partialRectangle;html=1;whiteSpace=wrap;connectable=0;fillColor=none;top=0;left=0;bottom=0;right=0;overflow=hidden;strokeColor=inherit;fontSize=16;" vertex="1" parent="c5Mr7ToMObOQHb0oXVFw-22">
          <mxGeometry width="40" height="30" as="geometry">
            <mxRectangle width="40" height="30" as="alternateBounds" />
          </mxGeometry>
        </mxCell>
        <mxCell id="c5Mr7ToMObOQHb0oXVFw-24" value="trans_amount (流水金额)" style="shape=partialRectangle;html=1;whiteSpace=wrap;connectable=0;fillColor=none;top=0;left=0;bottom=0;right=0;align=left;spacingLeft=6;overflow=hidden;strokeColor=inherit;fontSize=16;" vertex="1" parent="c5Mr7ToMObOQHb0oXVFw-22">
          <mxGeometry x="40" width="270" height="30" as="geometry">
            <mxRectangle width="270" height="30" as="alternateBounds" />
          </mxGeometry>
        </mxCell>
        <mxCell id="c5Mr7ToMObOQHb0oXVFw-25" value="" style="shape=tableRow;horizontal=0;startSize=0;swimlaneHead=0;swimlaneBody=0;top=0;left=0;bottom=0;right=0;collapsible=0;dropTarget=0;fillColor=none;points=[[0,0.5],[1,0.5]];portConstraint=eastwest;strokeColor=inherit;fontSize=16;" vertex="1" parent="c5Mr7ToMObOQHb0oXVFw-18">
          <mxGeometry y="90" width="310.00000000000045" height="30" as="geometry" />
        </mxCell>
        <mxCell id="c5Mr7ToMObOQHb0oXVFw-26" value="3" style="shape=partialRectangle;html=1;whiteSpace=wrap;connectable=0;fillColor=none;top=0;left=0;bottom=0;right=0;overflow=hidden;strokeColor=inherit;fontSize=16;" vertex="1" parent="c5Mr7ToMObOQHb0oXVFw-25">
          <mxGeometry width="40" height="30" as="geometry">
            <mxRectangle width="40" height="30" as="alternateBounds" />
          </mxGeometry>
        </mxCell>
        <mxCell id="c5Mr7ToMObOQHb0oXVFw-27" value="trade_no （外部业务单号，做幂等）" style="shape=partialRectangle;html=1;whiteSpace=wrap;connectable=0;fillColor=none;top=0;left=0;bottom=0;right=0;align=left;spacingLeft=6;overflow=hidden;strokeColor=inherit;fontSize=16;" vertex="1" parent="c5Mr7ToMObOQHb0oXVFw-25">
          <mxGeometry x="40" width="270" height="30" as="geometry">
            <mxRectangle width="270" height="30" as="alternateBounds" />
          </mxGeometry>
        </mxCell>
        <mxCell id="c5Mr7ToMObOQHb0oXVFw-28" style="shape=tableRow;horizontal=0;startSize=0;swimlaneHead=0;swimlaneBody=0;top=0;left=0;bottom=0;right=0;collapsible=0;dropTarget=0;fillColor=none;points=[[0,0.5],[1,0.5]];portConstraint=eastwest;strokeColor=inherit;fontSize=16;" vertex="1" parent="c5Mr7ToMObOQHb0oXVFw-18">
          <mxGeometry y="120" width="310.00000000000045" height="30" as="geometry" />
        </mxCell>
        <mxCell id="c5Mr7ToMObOQHb0oXVFw-29" value="4" style="shape=partialRectangle;html=1;whiteSpace=wrap;connectable=0;fillColor=none;top=0;left=0;bottom=0;right=0;overflow=hidden;strokeColor=inherit;fontSize=16;" vertex="1" parent="c5Mr7ToMObOQHb0oXVFw-28">
          <mxGeometry width="40" height="30" as="geometry">
            <mxRectangle width="40" height="30" as="alternateBounds" />
          </mxGeometry>
        </mxCell>
        <mxCell id="c5Mr7ToMObOQHb0oXVFw-30" value="trans_type (1 收入 2 支出)" style="shape=partialRectangle;html=1;whiteSpace=wrap;connectable=0;fillColor=none;top=0;left=0;bottom=0;right=0;align=left;spacingLeft=6;overflow=hidden;strokeColor=inherit;fontSize=16;" vertex="1" parent="c5Mr7ToMObOQHb0oXVFw-28">
          <mxGeometry x="40" width="270" height="30" as="geometry">
            <mxRectangle width="270" height="30" as="alternateBounds" />
          </mxGeometry>
        </mxCell>
        <mxCell id="c5Mr7ToMObOQHb0oXVFw-31" value="fund_frozen (冻结流水)" style="shape=table;startSize=30;container=1;collapsible=0;childLayout=tableLayout;fixedRows=1;rowLines=0;fontStyle=0;strokeColor=default;fontSize=16;" vertex="1" parent="1">
          <mxGeometry x="620" y="1010" width="310" height="150" as="geometry" />
        </mxCell>
        <mxCell id="c5Mr7ToMObOQHb0oXVFw-32" value="" style="shape=tableRow;horizontal=0;startSize=0;swimlaneHead=0;swimlaneBody=0;top=0;left=0;bottom=0;right=0;collapsible=0;dropTarget=0;fillColor=none;points=[[0,0.5],[1,0.5]];portConstraint=eastwest;strokeColor=inherit;fontSize=16;" vertex="1" parent="c5Mr7ToMObOQHb0oXVFw-31">
          <mxGeometry y="30" width="310" height="30" as="geometry" />
        </mxCell>
        <mxCell id="c5Mr7ToMObOQHb0oXVFw-33" value="1" style="shape=partialRectangle;html=1;whiteSpace=wrap;connectable=0;fillColor=none;top=0;left=0;bottom=0;right=0;overflow=hidden;pointerEvents=1;strokeColor=inherit;fontSize=16;" vertex="1" parent="c5Mr7ToMObOQHb0oXVFw-32">
          <mxGeometry width="40" height="30" as="geometry">
            <mxRectangle width="40" height="30" as="alternateBounds" />
          </mxGeometry>
        </mxCell>
        <mxCell id="c5Mr7ToMObOQHb0oXVFw-34" value="fund_no" style="shape=partialRectangle;html=1;whiteSpace=wrap;connectable=0;fillColor=none;top=0;left=0;bottom=0;right=0;align=left;spacingLeft=6;overflow=hidden;strokeColor=inherit;fontSize=16;" vertex="1" parent="c5Mr7ToMObOQHb0oXVFw-32">
          <mxGeometry x="40" width="270" height="30" as="geometry">
            <mxRectangle width="270" height="30" as="alternateBounds" />
          </mxGeometry>
        </mxCell>
        <mxCell id="c5Mr7ToMObOQHb0oXVFw-35" value="" style="shape=tableRow;horizontal=0;startSize=0;swimlaneHead=0;swimlaneBody=0;top=0;left=0;bottom=0;right=0;collapsible=0;dropTarget=0;fillColor=none;points=[[0,0.5],[1,0.5]];portConstraint=eastwest;strokeColor=inherit;fontSize=16;" vertex="1" parent="c5Mr7ToMObOQHb0oXVFw-31">
          <mxGeometry y="60" width="310" height="30" as="geometry" />
        </mxCell>
        <mxCell id="c5Mr7ToMObOQHb0oXVFw-36" value="2" style="shape=partialRectangle;html=1;whiteSpace=wrap;connectable=0;fillColor=none;top=0;left=0;bottom=0;right=0;overflow=hidden;strokeColor=inherit;fontSize=16;" vertex="1" parent="c5Mr7ToMObOQHb0oXVFw-35">
          <mxGeometry width="40" height="30" as="geometry">
            <mxRectangle width="40" height="30" as="alternateBounds" />
          </mxGeometry>
        </mxCell>
        <mxCell id="c5Mr7ToMObOQHb0oXVFw-37" value="trade_no (外部业务单号，做幂等)" style="shape=partialRectangle;html=1;whiteSpace=wrap;connectable=0;fillColor=none;top=0;left=0;bottom=0;right=0;align=left;spacingLeft=6;overflow=hidden;strokeColor=inherit;fontSize=16;" vertex="1" parent="c5Mr7ToMObOQHb0oXVFw-35">
          <mxGeometry x="40" width="270" height="30" as="geometry">
            <mxRectangle width="270" height="30" as="alternateBounds" />
          </mxGeometry>
        </mxCell>
        <mxCell id="c5Mr7ToMObOQHb0oXVFw-38" value="" style="shape=tableRow;horizontal=0;startSize=0;swimlaneHead=0;swimlaneBody=0;top=0;left=0;bottom=0;right=0;collapsible=0;dropTarget=0;fillColor=none;points=[[0,0.5],[1,0.5]];portConstraint=eastwest;strokeColor=inherit;fontSize=16;" vertex="1" parent="c5Mr7ToMObOQHb0oXVFw-31">
          <mxGeometry y="90" width="310" height="30" as="geometry" />
        </mxCell>
        <mxCell id="c5Mr7ToMObOQHb0oXVFw-39" value="3" style="shape=partialRectangle;html=1;whiteSpace=wrap;connectable=0;fillColor=none;top=0;left=0;bottom=0;right=0;overflow=hidden;strokeColor=inherit;fontSize=16;" vertex="1" parent="c5Mr7ToMObOQHb0oXVFw-38">
          <mxGeometry width="40" height="30" as="geometry">
            <mxRectangle width="40" height="30" as="alternateBounds" />
          </mxGeometry>
        </mxCell>
        <mxCell id="c5Mr7ToMObOQHb0oXVFw-40" value="frozen_amount (冻结金额)" style="shape=partialRectangle;html=1;whiteSpace=wrap;connectable=0;fillColor=none;top=0;left=0;bottom=0;right=0;align=left;spacingLeft=6;overflow=hidden;strokeColor=inherit;fontSize=16;" vertex="1" parent="c5Mr7ToMObOQHb0oXVFw-38">
          <mxGeometry x="40" width="270" height="30" as="geometry">
            <mxRectangle width="270" height="30" as="alternateBounds" />
          </mxGeometry>
        </mxCell>
        <mxCell id="c5Mr7ToMObOQHb0oXVFw-41" style="shape=tableRow;horizontal=0;startSize=0;swimlaneHead=0;swimlaneBody=0;top=0;left=0;bottom=0;right=0;collapsible=0;dropTarget=0;fillColor=none;points=[[0,0.5],[1,0.5]];portConstraint=eastwest;strokeColor=inherit;fontSize=16;" vertex="1" parent="c5Mr7ToMObOQHb0oXVFw-31">
          <mxGeometry y="120" width="310" height="30" as="geometry" />
        </mxCell>
        <mxCell id="c5Mr7ToMObOQHb0oXVFw-42" value="4" style="shape=partialRectangle;html=1;whiteSpace=wrap;connectable=0;fillColor=none;top=0;left=0;bottom=0;right=0;overflow=hidden;strokeColor=inherit;fontSize=16;" vertex="1" parent="c5Mr7ToMObOQHb0oXVFw-41">
          <mxGeometry width="40" height="30" as="geometry">
            <mxRectangle width="40" height="30" as="alternateBounds" />
          </mxGeometry>
        </mxCell>
        <mxCell id="c5Mr7ToMObOQHb0oXVFw-43" value="status （冻结状态 0 否 1 是）" style="shape=partialRectangle;html=1;whiteSpace=wrap;connectable=0;fillColor=none;top=0;left=0;bottom=0;right=0;align=left;spacingLeft=6;overflow=hidden;strokeColor=inherit;fontSize=16;" vertex="1" parent="c5Mr7ToMObOQHb0oXVFw-41">
          <mxGeometry x="40" width="270" height="30" as="geometry">
            <mxRectangle width="270" height="30" as="alternateBounds" />
          </mxGeometry>
        </mxCell>
        <mxCell id="c5Mr7ToMObOQHb0oXVFw-44" value="fund_deduction （挂账）" style="shape=table;startSize=30;container=1;collapsible=0;childLayout=tableLayout;fixedRows=1;rowLines=0;fontStyle=0;strokeColor=default;fontSize=16;" vertex="1" parent="1">
          <mxGeometry x="-30" y="1079.92" width="400.00000000000045" height="270.0799999999999" as="geometry" />
        </mxCell>
        <mxCell id="c5Mr7ToMObOQHb0oXVFw-45" value="" style="shape=tableRow;horizontal=0;startSize=0;swimlaneHead=0;swimlaneBody=0;top=0;left=0;bottom=0;right=0;collapsible=0;dropTarget=0;fillColor=none;points=[[0,0.5],[1,0.5]];portConstraint=eastwest;strokeColor=inherit;fontSize=16;" vertex="1" parent="c5Mr7ToMObOQHb0oXVFw-44">
          <mxGeometry y="30" width="400.00000000000045" height="30" as="geometry" />
        </mxCell>
        <mxCell id="c5Mr7ToMObOQHb0oXVFw-46" value="1" style="shape=partialRectangle;html=1;whiteSpace=wrap;connectable=0;fillColor=none;top=0;left=0;bottom=0;right=0;overflow=hidden;pointerEvents=1;strokeColor=inherit;fontSize=16;" vertex="1" parent="c5Mr7ToMObOQHb0oXVFw-45">
          <mxGeometry width="40" height="30" as="geometry">
            <mxRectangle width="40" height="30" as="alternateBounds" />
          </mxGeometry>
        </mxCell>
        <mxCell id="c5Mr7ToMObOQHb0oXVFw-47" value="fund_no (资金账号)" style="shape=partialRectangle;html=1;whiteSpace=wrap;connectable=0;fillColor=none;top=0;left=0;bottom=0;right=0;align=left;spacingLeft=6;overflow=hidden;strokeColor=inherit;fontSize=16;" vertex="1" parent="c5Mr7ToMObOQHb0oXVFw-45">
          <mxGeometry x="40" width="360" height="30" as="geometry">
            <mxRectangle width="360" height="30" as="alternateBounds" />
          </mxGeometry>
        </mxCell>
        <mxCell id="c5Mr7ToMObOQHb0oXVFw-48" value="" style="shape=tableRow;horizontal=0;startSize=0;swimlaneHead=0;swimlaneBody=0;top=0;left=0;bottom=0;right=0;collapsible=0;dropTarget=0;fillColor=none;points=[[0,0.5],[1,0.5]];portConstraint=eastwest;strokeColor=inherit;fontSize=16;" vertex="1" parent="c5Mr7ToMObOQHb0oXVFw-44">
          <mxGeometry y="60" width="400.00000000000045" height="30" as="geometry" />
        </mxCell>
        <mxCell id="c5Mr7ToMObOQHb0oXVFw-49" value="2" style="shape=partialRectangle;html=1;whiteSpace=wrap;connectable=0;fillColor=none;top=0;left=0;bottom=0;right=0;overflow=hidden;strokeColor=inherit;fontSize=16;" vertex="1" parent="c5Mr7ToMObOQHb0oXVFw-48">
          <mxGeometry width="40" height="30" as="geometry">
            <mxRectangle width="40" height="30" as="alternateBounds" />
          </mxGeometry>
        </mxCell>
        <mxCell id="c5Mr7ToMObOQHb0oXVFw-50" value="amount (抵扣金额)" style="shape=partialRectangle;html=1;whiteSpace=wrap;connectable=0;fillColor=none;top=0;left=0;bottom=0;right=0;align=left;spacingLeft=6;overflow=hidden;strokeColor=inherit;fontSize=16;" vertex="1" parent="c5Mr7ToMObOQHb0oXVFw-48">
          <mxGeometry x="40" width="360" height="30" as="geometry">
            <mxRectangle width="360" height="30" as="alternateBounds" />
          </mxGeometry>
        </mxCell>
        <mxCell id="c5Mr7ToMObOQHb0oXVFw-51" value="" style="shape=tableRow;horizontal=0;startSize=0;swimlaneHead=0;swimlaneBody=0;top=0;left=0;bottom=0;right=0;collapsible=0;dropTarget=0;fillColor=none;points=[[0,0.5],[1,0.5]];portConstraint=eastwest;strokeColor=inherit;fontSize=16;" vertex="1" parent="c5Mr7ToMObOQHb0oXVFw-44">
          <mxGeometry y="90" width="400.00000000000045" height="30" as="geometry" />
        </mxCell>
        <mxCell id="c5Mr7ToMObOQHb0oXVFw-52" value="3" style="shape=partialRectangle;html=1;whiteSpace=wrap;connectable=0;fillColor=none;top=0;left=0;bottom=0;right=0;overflow=hidden;strokeColor=inherit;fontSize=16;" vertex="1" parent="c5Mr7ToMObOQHb0oXVFw-51">
          <mxGeometry width="40" height="30" as="geometry">
            <mxRectangle width="40" height="30" as="alternateBounds" />
          </mxGeometry>
        </mxCell>
        <mxCell id="c5Mr7ToMObOQHb0oXVFw-53" value="income_biz_no (收入业务单号)" style="shape=partialRectangle;html=1;whiteSpace=wrap;connectable=0;fillColor=none;top=0;left=0;bottom=0;right=0;align=left;spacingLeft=6;overflow=hidden;strokeColor=inherit;fontSize=16;" vertex="1" parent="c5Mr7ToMObOQHb0oXVFw-51">
          <mxGeometry x="40" width="360" height="30" as="geometry">
            <mxRectangle width="360" height="30" as="alternateBounds" />
          </mxGeometry>
        </mxCell>
        <mxCell id="c5Mr7ToMObOQHb0oXVFw-54" style="shape=tableRow;horizontal=0;startSize=0;swimlaneHead=0;swimlaneBody=0;top=0;left=0;bottom=0;right=0;collapsible=0;dropTarget=0;fillColor=none;points=[[0,0.5],[1,0.5]];portConstraint=eastwest;strokeColor=inherit;fontSize=16;" vertex="1" parent="c5Mr7ToMObOQHb0oXVFw-44">
          <mxGeometry y="120" width="400.00000000000045" height="30" as="geometry" />
        </mxCell>
        <mxCell id="c5Mr7ToMObOQHb0oXVFw-55" value="4" style="shape=partialRectangle;html=1;whiteSpace=wrap;connectable=0;fillColor=none;top=0;left=0;bottom=0;right=0;overflow=hidden;strokeColor=inherit;fontSize=16;" vertex="1" parent="c5Mr7ToMObOQHb0oXVFw-54">
          <mxGeometry width="40" height="30" as="geometry">
            <mxRectangle width="40" height="30" as="alternateBounds" />
          </mxGeometry>
        </mxCell>
        <mxCell id="c5Mr7ToMObOQHb0oXVFw-56" value="outcome_biz_no (支出业务单号)" style="shape=partialRectangle;html=1;whiteSpace=wrap;connectable=0;fillColor=none;top=0;left=0;bottom=0;right=0;align=left;spacingLeft=6;overflow=hidden;strokeColor=inherit;fontSize=16;" vertex="1" parent="c5Mr7ToMObOQHb0oXVFw-54">
          <mxGeometry x="40" width="360" height="30" as="geometry">
            <mxRectangle width="360" height="30" as="alternateBounds" />
          </mxGeometry>
        </mxCell>
        <mxCell id="c5Mr7ToMObOQHb0oXVFw-57" style="shape=tableRow;horizontal=0;startSize=0;swimlaneHead=0;swimlaneBody=0;top=0;left=0;bottom=0;right=0;collapsible=0;dropTarget=0;fillColor=none;points=[[0,0.5],[1,0.5]];portConstraint=eastwest;strokeColor=inherit;fontSize=16;" vertex="1" parent="c5Mr7ToMObOQHb0oXVFw-44">
          <mxGeometry y="150" width="400.00000000000045" height="30" as="geometry" />
        </mxCell>
        <mxCell id="c5Mr7ToMObOQHb0oXVFw-58" value="5" style="shape=partialRectangle;html=1;whiteSpace=wrap;connectable=0;fillColor=none;top=0;left=0;bottom=0;right=0;overflow=hidden;strokeColor=inherit;fontSize=16;" vertex="1" parent="c5Mr7ToMObOQHb0oXVFw-57">
          <mxGeometry width="40" height="30" as="geometry">
            <mxRectangle width="40" height="30" as="alternateBounds" />
          </mxGeometry>
        </mxCell>
        <mxCell id="c5Mr7ToMObOQHb0oXVFw-59" value="lock （0 unlock 1 lock）" style="shape=partialRectangle;html=1;whiteSpace=wrap;connectable=0;fillColor=none;top=0;left=0;bottom=0;right=0;align=left;spacingLeft=6;overflow=hidden;strokeColor=inherit;fontSize=16;" vertex="1" parent="c5Mr7ToMObOQHb0oXVFw-57">
          <mxGeometry x="40" width="360" height="30" as="geometry">
            <mxRectangle width="360" height="30" as="alternateBounds" />
          </mxGeometry>
        </mxCell>
        <mxCell id="c5Mr7ToMObOQHb0oXVFw-60" style="shape=tableRow;horizontal=0;startSize=0;swimlaneHead=0;swimlaneBody=0;top=0;left=0;bottom=0;right=0;collapsible=0;dropTarget=0;fillColor=none;points=[[0,0.5],[1,0.5]];portConstraint=eastwest;strokeColor=inherit;fontSize=16;" vertex="1" parent="c5Mr7ToMObOQHb0oXVFw-44">
          <mxGeometry y="180" width="400.00000000000045" height="30" as="geometry" />
        </mxCell>
        <mxCell id="c5Mr7ToMObOQHb0oXVFw-61" value="6" style="shape=partialRectangle;html=1;whiteSpace=wrap;connectable=0;fillColor=none;top=0;left=0;bottom=0;right=0;overflow=hidden;strokeColor=inherit;fontSize=16;" vertex="1" parent="c5Mr7ToMObOQHb0oXVFw-60">
          <mxGeometry width="40" height="30" as="geometry">
            <mxRectangle width="40" height="30" as="alternateBounds" />
          </mxGeometry>
        </mxCell>
        <mxCell id="c5Mr7ToMObOQHb0oXVFw-62" value="fund_deduction_no (挂账单号, 自动生成)" style="shape=partialRectangle;html=1;whiteSpace=wrap;connectable=0;fillColor=none;top=0;left=0;bottom=0;right=0;align=left;spacingLeft=6;overflow=hidden;strokeColor=inherit;fontSize=16;" vertex="1" parent="c5Mr7ToMObOQHb0oXVFw-60">
          <mxGeometry x="40" width="360" height="30" as="geometry">
            <mxRectangle width="360" height="30" as="alternateBounds" />
          </mxGeometry>
        </mxCell>
        <mxCell id="c5Mr7ToMObOQHb0oXVFw-63" style="shape=tableRow;horizontal=0;startSize=0;swimlaneHead=0;swimlaneBody=0;top=0;left=0;bottom=0;right=0;collapsible=0;dropTarget=0;fillColor=none;points=[[0,0.5],[1,0.5]];portConstraint=eastwest;strokeColor=inherit;fontSize=16;" vertex="1" parent="c5Mr7ToMObOQHb0oXVFw-44">
          <mxGeometry y="210" width="400.00000000000045" height="30" as="geometry" />
        </mxCell>
        <mxCell id="c5Mr7ToMObOQHb0oXVFw-64" value="7" style="shape=partialRectangle;html=1;whiteSpace=wrap;connectable=0;fillColor=none;top=0;left=0;bottom=0;right=0;overflow=hidden;strokeColor=inherit;fontSize=16;" vertex="1" parent="c5Mr7ToMObOQHb0oXVFw-63">
          <mxGeometry width="40" height="30" as="geometry">
            <mxRectangle width="40" height="30" as="alternateBounds" />
          </mxGeometry>
        </mxCell>
        <mxCell id="c5Mr7ToMObOQHb0oXVFw-65" value="parent_deduction_no (关联挂账单)" style="shape=partialRectangle;html=1;whiteSpace=wrap;connectable=0;fillColor=none;top=0;left=0;bottom=0;right=0;align=left;spacingLeft=6;overflow=hidden;strokeColor=inherit;fontSize=16;" vertex="1" parent="c5Mr7ToMObOQHb0oXVFw-63">
          <mxGeometry x="40" width="360" height="30" as="geometry">
            <mxRectangle width="360" height="30" as="alternateBounds" />
          </mxGeometry>
        </mxCell>
        <mxCell id="c5Mr7ToMObOQHb0oXVFw-83" style="shape=tableRow;horizontal=0;startSize=0;swimlaneHead=0;swimlaneBody=0;top=0;left=0;bottom=0;right=0;collapsible=0;dropTarget=0;fillColor=none;points=[[0,0.5],[1,0.5]];portConstraint=eastwest;strokeColor=inherit;fontSize=16;" vertex="1" parent="c5Mr7ToMObOQHb0oXVFw-44">
          <mxGeometry y="240" width="400.00000000000045" height="30" as="geometry" />
        </mxCell>
        <mxCell id="c5Mr7ToMObOQHb0oXVFw-84" value="8" style="shape=partialRectangle;html=1;whiteSpace=wrap;connectable=0;fillColor=none;top=0;left=0;bottom=0;right=0;overflow=hidden;strokeColor=inherit;fontSize=16;" vertex="1" parent="c5Mr7ToMObOQHb0oXVFw-83">
          <mxGeometry width="40" height="30" as="geometry">
            <mxRectangle width="40" height="30" as="alternateBounds" />
          </mxGeometry>
        </mxCell>
        <mxCell id="c5Mr7ToMObOQHb0oXVFw-85" value="status （pending， partial， paid）" style="shape=partialRectangle;html=1;whiteSpace=wrap;connectable=0;fillColor=none;top=0;left=0;bottom=0;right=0;align=left;spacingLeft=6;overflow=hidden;strokeColor=inherit;fontSize=16;" vertex="1" parent="c5Mr7ToMObOQHb0oXVFw-83">
          <mxGeometry x="40" width="360" height="30" as="geometry">
            <mxRectangle width="360" height="30" as="alternateBounds" />
          </mxGeometry>
        </mxCell>
        <mxCell id="c5Mr7ToMObOQHb0oXVFw-87" style="edgeStyle=orthogonalEdgeStyle;rounded=0;orthogonalLoop=1;jettySize=auto;html=1;exitX=0;exitY=0.5;exitDx=0;exitDy=0;entryX=0;entryY=0.5;entryDx=0;entryDy=0;curved=1;endArrow=oval;endFill=1;startArrow=oval;startFill=1;" edge="1" parent="1" source="c5Mr7ToMObOQHb0oXVFw-63" target="c5Mr7ToMObOQHb0oXVFw-60">
          <mxGeometry relative="1" as="geometry">
            <Array as="points">
              <mxPoint x="-120" y="1305" />
              <mxPoint x="-120" y="1275" />
            </Array>
          </mxGeometry>
        </mxCell>
        <mxCell id="c5Mr7ToMObOQHb0oXVFw-73" value="领域模型层" style="text;strokeColor=none;fillColor=none;html=1;fontSize=24;fontStyle=1;verticalAlign=middle;align=center;" vertex="1" parent="1">
          <mxGeometry x="-80" y="690" width="100" height="40" as="geometry" />
        </mxCell>
        <mxCell id="c5Mr7ToMObOQHb0oXVFw-81" style="edgeStyle=orthogonalEdgeStyle;rounded=0;orthogonalLoop=1;jettySize=auto;html=1;exitX=1;exitY=0.5;exitDx=0;exitDy=0;entryX=0;entryY=0.5;entryDx=0;entryDy=0;endArrow=ERmany;endFill=0;startArrow=oval;startFill=1;curved=1;" edge="1" parent="1" source="c5Mr7ToMObOQHb0oXVFw-15" target="c5Mr7ToMObOQHb0oXVFw-19">
          <mxGeometry relative="1" as="geometry" />
        </mxCell>
        <mxCell id="c5Mr7ToMObOQHb0oXVFw-82" style="edgeStyle=orthogonalEdgeStyle;rounded=0;orthogonalLoop=1;jettySize=auto;html=1;exitX=1;exitY=0.5;exitDx=0;exitDy=0;entryX=0;entryY=0.5;entryDx=0;entryDy=0;endArrow=ERmany;endFill=0;startArrow=oval;startFill=1;curved=1;" edge="1" parent="1" source="c5Mr7ToMObOQHb0oXVFw-15" target="c5Mr7ToMObOQHb0oXVFw-32">
          <mxGeometry relative="1" as="geometry" />
        </mxCell>
        <mxCell id="c5Mr7ToMObOQHb0oXVFw-86" style="edgeStyle=orthogonalEdgeStyle;rounded=0;orthogonalLoop=1;jettySize=auto;html=1;exitX=1;exitY=0.5;exitDx=0;exitDy=0;entryX=1;entryY=0.5;entryDx=0;entryDy=0;endArrow=ERmany;endFill=0;startArrow=oval;startFill=1;curved=1;" edge="1" parent="1" source="c5Mr7ToMObOQHb0oXVFw-15" target="c5Mr7ToMObOQHb0oXVFw-45">
          <mxGeometry relative="1" as="geometry">
            <Array as="points">
              <mxPoint x="450" y="925" />
              <mxPoint x="450" y="1125" />
            </Array>
          </mxGeometry>
        </mxCell>
        <mxCell id="c5Mr7ToMObOQHb0oXVFw-100" style="edgeStyle=orthogonalEdgeStyle;rounded=0;orthogonalLoop=1;jettySize=auto;html=1;exitX=0.5;exitY=1;exitDx=0;exitDy=0;entryX=0.5;entryY=0;entryDx=0;entryDy=0;curved=1;" edge="1" parent="1" source="c5Mr7ToMObOQHb0oXVFw-97" target="c5Mr7ToMObOQHb0oXVFw-98">
          <mxGeometry relative="1" as="geometry" />
        </mxCell>
        <mxCell id="c5Mr7ToMObOQHb0oXVFw-101" style="edgeStyle=orthogonalEdgeStyle;rounded=0;orthogonalLoop=1;jettySize=auto;html=1;exitX=0.5;exitY=1;exitDx=0;exitDy=0;entryX=0.5;entryY=0;entryDx=0;entryDy=0;curved=1;" edge="1" parent="1" source="c5Mr7ToMObOQHb0oXVFw-97" target="c5Mr7ToMObOQHb0oXVFw-99">
          <mxGeometry relative="1" as="geometry" />
        </mxCell>
        <mxCell id="c5Mr7ToMObOQHb0oXVFw-97" value="业务支出" style="ellipse;whiteSpace=wrap;html=1;" vertex="1" parent="1">
          <mxGeometry x="-210" y="1430" width="120" height="80" as="geometry" />
        </mxCell>
        <mxCell id="c5Mr7ToMObOQHb0oXVFw-98" value="资金扣减 + 流水记录" style="ellipse;whiteSpace=wrap;html=1;" vertex="1" parent="1">
          <mxGeometry x="-310" y="1570" width="120" height="80" as="geometry" />
        </mxCell>
        <mxCell id="c5Mr7ToMObOQHb0oXVFw-99" value="挂账" style="ellipse;whiteSpace=wrap;html=1;" vertex="1" parent="1">
          <mxGeometry x="-110" y="1570" width="120" height="80" as="geometry" />
        </mxCell>
        <mxCell id="c5Mr7ToMObOQHb0oXVFw-107" style="edgeStyle=orthogonalEdgeStyle;rounded=0;orthogonalLoop=1;jettySize=auto;html=1;exitX=0.5;exitY=1;exitDx=0;exitDy=0;entryX=0.5;entryY=0;entryDx=0;entryDy=0;curved=1;" edge="1" parent="1" source="c5Mr7ToMObOQHb0oXVFw-102" target="c5Mr7ToMObOQHb0oXVFw-103">
          <mxGeometry relative="1" as="geometry" />
        </mxCell>
        <mxCell id="c5Mr7ToMObOQHb0oXVFw-108" style="edgeStyle=orthogonalEdgeStyle;rounded=0;orthogonalLoop=1;jettySize=auto;html=1;exitX=0.5;exitY=1;exitDx=0;exitDy=0;entryX=0.5;entryY=0;entryDx=0;entryDy=0;curved=1;" edge="1" parent="1" source="c5Mr7ToMObOQHb0oXVFw-102" target="c5Mr7ToMObOQHb0oXVFw-104">
          <mxGeometry relative="1" as="geometry" />
        </mxCell>
        <mxCell id="c5Mr7ToMObOQHb0oXVFw-102" value="业务收入" style="ellipse;whiteSpace=wrap;html=1;" vertex="1" parent="1">
          <mxGeometry x="407" y="1440" width="120" height="80" as="geometry" />
        </mxCell>
        <mxCell id="c5Mr7ToMObOQHb0oXVFw-103" value="资金增加 + 流水记录" style="ellipse;whiteSpace=wrap;html=1;" vertex="1" parent="1">
          <mxGeometry x="330" y="1570" width="120" height="80" as="geometry" />
        </mxCell>
        <mxCell id="c5Mr7ToMObOQHb0oXVFw-104" value="资金扣减 + 流水记录" style="ellipse;whiteSpace=wrap;html=1;" vertex="1" parent="1">
          <mxGeometry x="510" y="1570" width="120" height="80" as="geometry" />
        </mxCell>
        <mxCell id="c5Mr7ToMObOQHb0oXVFw-106" style="edgeStyle=orthogonalEdgeStyle;rounded=0;orthogonalLoop=1;jettySize=auto;html=1;exitX=0.5;exitY=0;exitDx=0;exitDy=0;entryX=0.5;entryY=1;entryDx=0;entryDy=0;curved=1;" edge="1" parent="1" source="c5Mr7ToMObOQHb0oXVFw-105" target="c5Mr7ToMObOQHb0oXVFw-104">
          <mxGeometry relative="1" as="geometry" />
        </mxCell>
        <mxCell id="c5Mr7ToMObOQHb0oXVFw-112" style="edgeStyle=orthogonalEdgeStyle;rounded=0;orthogonalLoop=1;jettySize=auto;html=1;exitX=1;exitY=0.5;exitDx=0;exitDy=0;entryX=0;entryY=0.5;entryDx=0;entryDy=0;" edge="1" parent="1" source="c5Mr7ToMObOQHb0oXVFw-105" target="c5Mr7ToMObOQHb0oXVFw-109">
          <mxGeometry relative="1" as="geometry" />
        </mxCell>
        <mxCell id="c5Mr7ToMObOQHb0oXVFw-105" value="挂账" style="ellipse;whiteSpace=wrap;html=1;" vertex="1" parent="1">
          <mxGeometry x="510" y="1700" width="120" height="80" as="geometry" />
        </mxCell>
        <mxCell id="c5Mr7ToMObOQHb0oXVFw-117" style="edgeStyle=orthogonalEdgeStyle;rounded=0;orthogonalLoop=1;jettySize=auto;html=1;exitX=0.5;exitY=0;exitDx=0;exitDy=0;entryX=0.5;entryY=1;entryDx=0;entryDy=0;curved=1;" edge="1" parent="1" source="c5Mr7ToMObOQHb0oXVFw-109" target="c5Mr7ToMObOQHb0oXVFw-115">
          <mxGeometry relative="1" as="geometry" />
        </mxCell>
        <mxCell id="c5Mr7ToMObOQHb0oXVFw-119" style="edgeStyle=orthogonalEdgeStyle;rounded=0;orthogonalLoop=1;jettySize=auto;html=1;exitX=1;exitY=0.5;exitDx=0;exitDy=0;entryX=0;entryY=0.5;entryDx=0;entryDy=0;" edge="1" parent="1" source="c5Mr7ToMObOQHb0oXVFw-109" target="c5Mr7ToMObOQHb0oXVFw-118">
          <mxGeometry relative="1" as="geometry" />
        </mxCell>
        <mxCell id="c5Mr7ToMObOQHb0oXVFw-109" value="挂账（剩余）" style="ellipse;whiteSpace=wrap;html=1;" vertex="1" parent="1">
          <mxGeometry x="920" y="1700" width="120" height="80" as="geometry" />
        </mxCell>
        <mxCell id="c5Mr7ToMObOQHb0oXVFw-114" style="edgeStyle=orthogonalEdgeStyle;rounded=0;orthogonalLoop=1;jettySize=auto;html=1;exitX=0.5;exitY=1;exitDx=0;exitDy=0;entryX=0.5;entryY=0;entryDx=0;entryDy=0;curved=1;" edge="1" parent="1" source="c5Mr7ToMObOQHb0oXVFw-111" target="c5Mr7ToMObOQHb0oXVFw-113">
          <mxGeometry relative="1" as="geometry" />
        </mxCell>
        <mxCell id="c5Mr7ToMObOQHb0oXVFw-116" style="edgeStyle=orthogonalEdgeStyle;rounded=0;orthogonalLoop=1;jettySize=auto;html=1;exitX=0.5;exitY=1;exitDx=0;exitDy=0;entryX=0.5;entryY=0;entryDx=0;entryDy=0;curved=1;" edge="1" parent="1" source="c5Mr7ToMObOQHb0oXVFw-111" target="c5Mr7ToMObOQHb0oXVFw-115">
          <mxGeometry relative="1" as="geometry" />
        </mxCell>
        <mxCell id="c5Mr7ToMObOQHb0oXVFw-111" value="业务收入" style="ellipse;whiteSpace=wrap;html=1;" vertex="1" parent="1">
          <mxGeometry x="800" y="1440" width="120" height="80" as="geometry" />
        </mxCell>
        <mxCell id="c5Mr7ToMObOQHb0oXVFw-113" value="资金增加 + 流水记录" style="ellipse;whiteSpace=wrap;html=1;" vertex="1" parent="1">
          <mxGeometry x="720" y="1570" width="120" height="80" as="geometry" />
        </mxCell>
        <mxCell id="c5Mr7ToMObOQHb0oXVFw-115" value="资金扣减 + 流水记录" style="ellipse;whiteSpace=wrap;html=1;" vertex="1" parent="1">
          <mxGeometry x="920" y="1570" width="120" height="80" as="geometry" />
        </mxCell>
        <mxCell id="c5Mr7ToMObOQHb0oXVFw-118" value="挂账（剩余）" style="ellipse;whiteSpace=wrap;html=1;" vertex="1" parent="1">
          <mxGeometry x="1121" y="1700" width="120" height="80" as="geometry" />
        </mxCell>
        <mxCell id="c5Mr7ToMObOQHb0oXVFw-122" style="edgeStyle=orthogonalEdgeStyle;rounded=0;orthogonalLoop=1;jettySize=auto;html=1;exitX=0.5;exitY=1;exitDx=0;exitDy=0;entryX=0.5;entryY=0;entryDx=0;entryDy=0;curved=1;" edge="1" parent="1" source="c5Mr7ToMObOQHb0oXVFw-120" target="c5Mr7ToMObOQHb0oXVFw-121">
          <mxGeometry relative="1" as="geometry" />
        </mxCell>
        <mxCell id="c5Mr7ToMObOQHb0oXVFw-124" style="edgeStyle=orthogonalEdgeStyle;rounded=0;orthogonalLoop=1;jettySize=auto;html=1;exitX=0.5;exitY=1;exitDx=0;exitDy=0;entryX=0.5;entryY=0;entryDx=0;entryDy=0;" edge="1" parent="1" source="c5Mr7ToMObOQHb0oXVFw-120" target="c5Mr7ToMObOQHb0oXVFw-123">
          <mxGeometry relative="1" as="geometry" />
        </mxCell>
        <mxCell id="c5Mr7ToMObOQHb0oXVFw-120" value="提现" style="ellipse;whiteSpace=wrap;html=1;" vertex="1" parent="1">
          <mxGeometry x="-219" y="1870" width="120" height="80" as="geometry" />
        </mxCell>
        <mxCell id="c5Mr7ToMObOQHb0oXVFw-121" value="资金占用 + 冻结单据" style="ellipse;whiteSpace=wrap;html=1;" vertex="1" parent="1">
          <mxGeometry x="-319" y="2000" width="120" height="80" as="geometry" />
        </mxCell>
        <mxCell id="c5Mr7ToMObOQHb0oXVFw-126" style="edgeStyle=orthogonalEdgeStyle;rounded=0;orthogonalLoop=1;jettySize=auto;html=1;exitX=1;exitY=0.5;exitDx=0;exitDy=0;entryX=0.5;entryY=1;entryDx=0;entryDy=0;curved=1;" edge="1" parent="1" source="c5Mr7ToMObOQHb0oXVFw-123" target="c5Mr7ToMObOQHb0oXVFw-125">
          <mxGeometry relative="1" as="geometry" />
        </mxCell>
        <mxCell id="c5Mr7ToMObOQHb0oXVFw-123" value="三方系统资金划转" style="ellipse;whiteSpace=wrap;html=1;" vertex="1" parent="1">
          <mxGeometry x="-219" y="2130" width="120" height="80" as="geometry" />
        </mxCell>
        <mxCell id="c5Mr7ToMObOQHb0oXVFw-125" value="占用扣减 + 资金扣减 + 冻结单据完结" style="ellipse;whiteSpace=wrap;html=1;" vertex="1" parent="1">
          <mxGeometry x="-89" y="2000" width="120" height="80" as="geometry" />
        </mxCell>
        <mxCell id="c5Mr7ToMObOQHb0oXVFw-129" style="edgeStyle=orthogonalEdgeStyle;rounded=0;orthogonalLoop=1;jettySize=auto;html=1;exitX=0.5;exitY=1;exitDx=0;exitDy=0;entryX=0.5;entryY=0;entryDx=0;entryDy=0;curved=1;" edge="1" parent="1" source="c5Mr7ToMObOQHb0oXVFw-127" target="c5Mr7ToMObOQHb0oXVFw-128">
          <mxGeometry relative="1" as="geometry" />
        </mxCell>
        <mxCell id="c5Mr7ToMObOQHb0oXVFw-131" style="edgeStyle=orthogonalEdgeStyle;rounded=0;orthogonalLoop=1;jettySize=auto;html=1;exitX=0.5;exitY=1;exitDx=0;exitDy=0;entryX=0.5;entryY=0;entryDx=0;entryDy=0;curved=1;" edge="1" parent="1" source="c5Mr7ToMObOQHb0oXVFw-127" target="c5Mr7ToMObOQHb0oXVFw-130">
          <mxGeometry relative="1" as="geometry" />
        </mxCell>
        <mxCell id="c5Mr7ToMObOQHb0oXVFw-127" value="提现" style="ellipse;whiteSpace=wrap;html=1;" vertex="1" parent="1">
          <mxGeometry x="261" y="1870" width="120" height="80" as="geometry" />
        </mxCell>
        <mxCell id="c5Mr7ToMObOQHb0oXVFw-128" value="资金占用 + 冻结单据" style="ellipse;whiteSpace=wrap;html=1;" vertex="1" parent="1">
          <mxGeometry x="151" y="2000" width="120" height="80" as="geometry" />
        </mxCell>
        <mxCell id="c5Mr7ToMObOQHb0oXVFw-133" style="edgeStyle=orthogonalEdgeStyle;rounded=0;orthogonalLoop=1;jettySize=auto;html=1;exitX=1;exitY=0.5;exitDx=0;exitDy=0;entryX=0.5;entryY=1;entryDx=0;entryDy=0;curved=1;" edge="1" parent="1" source="c5Mr7ToMObOQHb0oXVFw-130" target="c5Mr7ToMObOQHb0oXVFw-132">
          <mxGeometry relative="1" as="geometry" />
        </mxCell>
        <mxCell id="c5Mr7ToMObOQHb0oXVFw-130" value="三方系统资金&lt;div&gt;划转失败&lt;/div&gt;" style="ellipse;whiteSpace=wrap;html=1;" vertex="1" parent="1">
          <mxGeometry x="521" y="2230" width="120" height="80" as="geometry" />
        </mxCell>
        <mxCell id="c5Mr7ToMObOQHb0oXVFw-151" value="" style="edgeStyle=orthogonalEdgeStyle;rounded=0;orthogonalLoop=1;jettySize=auto;html=1;" edge="1" parent="1" source="c5Mr7ToMObOQHb0oXVFw-132" target="c5Mr7ToMObOQHb0oXVFw-138">
          <mxGeometry relative="1" as="geometry" />
        </mxCell>
        <mxCell id="c5Mr7ToMObOQHb0oXVFw-132" value="占用扣减 + 冻结单据完结" style="ellipse;whiteSpace=wrap;html=1;" vertex="1" parent="1">
          <mxGeometry x="641" y="2000" width="120" height="80" as="geometry" />
        </mxCell>
        <mxCell id="c5Mr7ToMObOQHb0oXVFw-136" style="edgeStyle=orthogonalEdgeStyle;rounded=0;orthogonalLoop=1;jettySize=auto;html=1;exitX=0.5;exitY=1;exitDx=0;exitDy=0;entryX=0.5;entryY=0;entryDx=0;entryDy=0;curved=1;" edge="1" parent="1" source="c5Mr7ToMObOQHb0oXVFw-134" target="c5Mr7ToMObOQHb0oXVFw-135">
          <mxGeometry relative="1" as="geometry" />
        </mxCell>
        <mxCell id="c5Mr7ToMObOQHb0oXVFw-134" value="业务支出" style="ellipse;whiteSpace=wrap;html=1;" vertex="1" parent="1">
          <mxGeometry x="431" y="1870" width="120" height="80" as="geometry" />
        </mxCell>
        <mxCell id="c5Mr7ToMObOQHb0oXVFw-139" style="edgeStyle=orthogonalEdgeStyle;rounded=0;orthogonalLoop=1;jettySize=auto;html=1;exitX=1;exitY=0.5;exitDx=0;exitDy=0;entryX=0;entryY=0.5;entryDx=0;entryDy=0;" edge="1" parent="1" source="c5Mr7ToMObOQHb0oXVFw-135" target="c5Mr7ToMObOQHb0oXVFw-137">
          <mxGeometry relative="1" as="geometry" />
        </mxCell>
        <mxCell id="c5Mr7ToMObOQHb0oXVFw-135" value="挂账" style="ellipse;whiteSpace=wrap;html=1;" vertex="1" parent="1">
          <mxGeometry x="371" y="2110" width="120" height="80" as="geometry" />
        </mxCell>
        <mxCell id="c5Mr7ToMObOQHb0oXVFw-140" style="edgeStyle=orthogonalEdgeStyle;rounded=0;orthogonalLoop=1;jettySize=auto;html=1;exitX=0.5;exitY=0;exitDx=0;exitDy=0;entryX=0.5;entryY=1;entryDx=0;entryDy=0;" edge="1" parent="1" source="c5Mr7ToMObOQHb0oXVFw-137" target="c5Mr7ToMObOQHb0oXVFw-138">
          <mxGeometry relative="1" as="geometry" />
        </mxCell>
        <mxCell id="c5Mr7ToMObOQHb0oXVFw-142" style="edgeStyle=orthogonalEdgeStyle;rounded=0;orthogonalLoop=1;jettySize=auto;html=1;exitX=1;exitY=0.5;exitDx=0;exitDy=0;entryX=0;entryY=0.5;entryDx=0;entryDy=0;" edge="1" parent="1" source="c5Mr7ToMObOQHb0oXVFw-137" target="c5Mr7ToMObOQHb0oXVFw-141">
          <mxGeometry relative="1" as="geometry" />
        </mxCell>
        <mxCell id="c5Mr7ToMObOQHb0oXVFw-137" value="挂账" style="ellipse;whiteSpace=wrap;html=1;" vertex="1" parent="1">
          <mxGeometry x="821" y="2110" width="120" height="80" as="geometry" />
        </mxCell>
        <mxCell id="c5Mr7ToMObOQHb0oXVFw-138" value="资金扣减 + 流水记录" style="ellipse;whiteSpace=wrap;html=1;" vertex="1" parent="1">
          <mxGeometry x="821" y="2000" width="120" height="80" as="geometry" />
        </mxCell>
        <mxCell id="c5Mr7ToMObOQHb0oXVFw-141" value="挂账（剩余）" style="ellipse;whiteSpace=wrap;html=1;" vertex="1" parent="1">
          <mxGeometry x="1001" y="2110" width="120" height="80" as="geometry" />
        </mxCell>
        <mxCell id="c5Mr7ToMObOQHb0oXVFw-145" style="edgeStyle=orthogonalEdgeStyle;rounded=0;orthogonalLoop=1;jettySize=auto;html=1;exitX=0.5;exitY=1;exitDx=0;exitDy=0;entryX=0.5;entryY=0;entryDx=0;entryDy=0;" edge="1" parent="1" source="c5Mr7ToMObOQHb0oXVFw-143" target="c5Mr7ToMObOQHb0oXVFw-144">
          <mxGeometry relative="1" as="geometry" />
        </mxCell>
        <mxCell id="c5Mr7ToMObOQHb0oXVFw-143" value="业务支出" style="ellipse;whiteSpace=wrap;html=1;" vertex="1" parent="1">
          <mxGeometry x="60" y="1440" width="120" height="80" as="geometry" />
        </mxCell>
        <mxCell id="c5Mr7ToMObOQHb0oXVFw-144" value="挂账" style="ellipse;whiteSpace=wrap;html=1;" vertex="1" parent="1">
          <mxGeometry x="60" y="1570" width="120" height="80" as="geometry" />
        </mxCell>
        <mxCell id="c5Mr7ToMObOQHb0oXVFw-146" value="资金余额不为 0，允许扣负" style="text;html=1;align=center;verticalAlign=middle;whiteSpace=wrap;rounded=0;" vertex="1" parent="1">
          <mxGeometry x="-310" y="1390" width="190" height="30" as="geometry" />
        </mxCell>
        <mxCell id="c5Mr7ToMObOQHb0oXVFw-147" value="资金余额为 0，允许扣负" style="text;html=1;align=center;verticalAlign=middle;whiteSpace=wrap;rounded=0;" vertex="1" parent="1">
          <mxGeometry x="-10" y="1390" width="190" height="30" as="geometry" />
        </mxCell>
        <mxCell id="c5Mr7ToMObOQHb0oXVFw-148" value="有负债，收入时先抵偿负债，负债未清空，拆分账单" style="text;html=1;align=center;verticalAlign=middle;whiteSpace=wrap;rounded=0;" vertex="1" parent="1">
          <mxGeometry x="410" y="1390" width="320" height="30" as="geometry" />
        </mxCell>
        <mxCell id="c5Mr7ToMObOQHb0oXVFw-149" value="正常提现" style="text;html=1;align=center;verticalAlign=middle;whiteSpace=wrap;rounded=0;" vertex="1" parent="1">
          <mxGeometry x="-254" y="1810" width="190" height="30" as="geometry" />
        </mxCell>
        <mxCell id="c5Mr7ToMObOQHb0oXVFw-150" value="提现失败，提现过程中出现负债，解冻资金后抵偿负债，负债未清空，拆分账单" style="text;html=1;align=center;verticalAlign=middle;whiteSpace=wrap;rounded=0;" vertex="1" parent="1">
          <mxGeometry x="336" y="1820" width="495" height="30" as="geometry" />
        </mxCell>
      </root>
    </mxGraphModel>
  </diagram>
</mxfile>
